<mxfile host="app.diagrams.net" modified="2023-04-06T05:29:40.591Z" agent="Mozilla/5.0 (Macintosh; Intel Mac OS X 10_15_7) AppleWebKit/605.1.15 (KHTML, like Gecko) Version/16.4 Safari/605.1.15" etag="7gzecWN5lWQuW_w-79wG" version="21.1.4" type="github">
  <diagram name="Page-1" id="45hINePPNABUSpbGqjVy">
    <mxGraphModel dx="1496" dy="924" grid="1" gridSize="10" guides="1" tooltips="1" connect="1" arrows="1" fold="1" page="1" pageScale="1" pageWidth="827" pageHeight="1169" math="0" shadow="0">
      <root>
        <mxCell id="0" />
        <mxCell id="1" parent="0" />
        <mxCell id="6jiHXf_fW9RHql4fyeyQ-5" value="Student" style="rounded=0;whiteSpace=wrap;html=1;fontSize=16;" parent="1" vertex="1">
          <mxGeometry x="-120" y="80" width="110" height="40" as="geometry" />
        </mxCell>
        <mxCell id="6jiHXf_fW9RHql4fyeyQ-6" value="Student" style="rounded=0;whiteSpace=wrap;html=1;fontSize=16;" parent="1" vertex="1">
          <mxGeometry x="490" y="80" width="110" height="40" as="geometry" />
        </mxCell>
        <mxCell id="6jiHXf_fW9RHql4fyeyQ-7" value="Administrator" style="rounded=0;whiteSpace=wrap;html=1;fontSize=16;" parent="1" vertex="1">
          <mxGeometry x="-110" y="240" width="110" height="40" as="geometry" />
        </mxCell>
        <mxCell id="6jiHXf_fW9RHql4fyeyQ-9" value="Administrator" style="rounded=0;whiteSpace=wrap;html=1;fontSize=16;" parent="1" vertex="1">
          <mxGeometry x="490" y="250" width="108" height="30" as="geometry" />
        </mxCell>
        <mxCell id="6jiHXf_fW9RHql4fyeyQ-11" value="Online Examination System" style="ellipse;whiteSpace=wrap;html=1;aspect=fixed;fontSize=16;" parent="1" vertex="1">
          <mxGeometry x="180" y="120" width="130" height="130" as="geometry" />
        </mxCell>
        <mxCell id="6jiHXf_fW9RHql4fyeyQ-12" value="" style="endArrow=none;html=1;rounded=0;fontSize=12;startSize=8;endSize=8;curved=1;exitX=1;exitY=0.25;exitDx=0;exitDy=0;" parent="1" source="6jiHXf_fW9RHql4fyeyQ-5" edge="1">
          <mxGeometry width="50" height="50" relative="1" as="geometry">
            <mxPoint x="130" y="90" as="sourcePoint" />
            <mxPoint x="200" y="90.5" as="targetPoint" />
          </mxGeometry>
        </mxCell>
        <mxCell id="6jiHXf_fW9RHql4fyeyQ-16" value="" style="endArrow=classic;html=1;rounded=0;fontSize=12;startSize=8;endSize=8;curved=1;entryX=0;entryY=0;entryDx=0;entryDy=0;" parent="1" target="6jiHXf_fW9RHql4fyeyQ-11" edge="1">
          <mxGeometry width="50" height="50" relative="1" as="geometry">
            <mxPoint x="200" y="90" as="sourcePoint" />
            <mxPoint x="200" y="130" as="targetPoint" />
          </mxGeometry>
        </mxCell>
        <mxCell id="6jiHXf_fW9RHql4fyeyQ-17" value="" style="endArrow=none;html=1;rounded=0;fontSize=12;startSize=8;endSize=8;curved=1;exitX=1;exitY=0.75;exitDx=0;exitDy=0;" parent="1" source="6jiHXf_fW9RHql4fyeyQ-5" edge="1">
          <mxGeometry width="50" height="50" relative="1" as="geometry">
            <mxPoint x="130" y="110" as="sourcePoint" />
            <mxPoint x="190" y="110" as="targetPoint" />
          </mxGeometry>
        </mxCell>
        <mxCell id="6jiHXf_fW9RHql4fyeyQ-20" value="" style="endArrow=classic;html=1;rounded=0;fontSize=12;startSize=8;endSize=8;curved=1;" parent="1" edge="1">
          <mxGeometry width="50" height="50" relative="1" as="geometry">
            <mxPoint x="191" y="110" as="sourcePoint" />
            <mxPoint x="190" y="150" as="targetPoint" />
          </mxGeometry>
        </mxCell>
        <mxCell id="6jiHXf_fW9RHql4fyeyQ-26" value="" style="edgeStyle=segmentEdgeStyle;endArrow=classic;html=1;curved=0;rounded=0;endSize=8;startSize=8;fontSize=12;exitX=1;exitY=0.5;exitDx=0;exitDy=0;" parent="1" source="6jiHXf_fW9RHql4fyeyQ-7" edge="1">
          <mxGeometry width="50" height="50" relative="1" as="geometry">
            <mxPoint x="140" y="260" as="sourcePoint" />
            <mxPoint x="190" y="220" as="targetPoint" />
            <Array as="points">
              <mxPoint x="190" y="260" />
            </Array>
          </mxGeometry>
        </mxCell>
        <mxCell id="6jiHXf_fW9RHql4fyeyQ-28" value="" style="edgeStyle=elbowEdgeStyle;elbow=horizontal;endArrow=classic;html=1;curved=0;rounded=0;endSize=8;startSize=8;fontSize=12;entryX=0;entryY=0.25;entryDx=0;entryDy=0;" parent="1" source="6jiHXf_fW9RHql4fyeyQ-11" target="6jiHXf_fW9RHql4fyeyQ-6" edge="1">
          <mxGeometry width="50" height="50" relative="1" as="geometry">
            <mxPoint x="310" y="140" as="sourcePoint" />
            <mxPoint x="360" y="90" as="targetPoint" />
            <Array as="points">
              <mxPoint x="330" y="90" />
            </Array>
          </mxGeometry>
        </mxCell>
        <mxCell id="6jiHXf_fW9RHql4fyeyQ-29" value="" style="edgeStyle=elbowEdgeStyle;elbow=horizontal;endArrow=classic;html=1;curved=0;rounded=0;endSize=8;startSize=8;fontSize=12;exitX=1;exitY=0.608;exitDx=0;exitDy=0;exitPerimeter=0;entryX=0;entryY=0.5;entryDx=0;entryDy=0;" parent="1" source="6jiHXf_fW9RHql4fyeyQ-11" target="6jiHXf_fW9RHql4fyeyQ-6" edge="1">
          <mxGeometry width="50" height="50" relative="1" as="geometry">
            <mxPoint x="320" y="195" as="sourcePoint" />
            <mxPoint x="360" y="100" as="targetPoint" />
            <Array as="points">
              <mxPoint x="340" y="190" />
              <mxPoint x="330" y="195" />
            </Array>
          </mxGeometry>
        </mxCell>
        <mxCell id="6jiHXf_fW9RHql4fyeyQ-30" value="" style="edgeStyle=segmentEdgeStyle;endArrow=classic;html=1;curved=0;rounded=0;endSize=8;startSize=8;fontSize=12;exitX=1;exitY=0.75;exitDx=0;exitDy=0;" parent="1" source="6jiHXf_fW9RHql4fyeyQ-7" edge="1">
          <mxGeometry width="50" height="50" relative="1" as="geometry">
            <mxPoint x="130" y="270" as="sourcePoint" />
            <mxPoint x="200" y="230" as="targetPoint" />
            <Array as="points">
              <mxPoint x="200" y="270" />
            </Array>
          </mxGeometry>
        </mxCell>
        <mxCell id="6jiHXf_fW9RHql4fyeyQ-32" value="" style="edgeStyle=segmentEdgeStyle;endArrow=classic;html=1;curved=0;rounded=0;endSize=8;startSize=8;fontSize=12;entryX=0;entryY=1;entryDx=0;entryDy=0;" parent="1" source="6jiHXf_fW9RHql4fyeyQ-11" target="6jiHXf_fW9RHql4fyeyQ-9" edge="1">
          <mxGeometry width="50" height="50" relative="1" as="geometry">
            <mxPoint x="290" y="230" as="sourcePoint" />
            <mxPoint x="330" y="280" as="targetPoint" />
            <Array as="points">
              <mxPoint x="290" y="280" />
            </Array>
          </mxGeometry>
        </mxCell>
        <mxCell id="6jiHXf_fW9RHql4fyeyQ-33" value="" style="edgeStyle=segmentEdgeStyle;endArrow=classic;html=1;curved=0;rounded=0;endSize=8;startSize=8;fontSize=12;" parent="1" source="6jiHXf_fW9RHql4fyeyQ-11" target="6jiHXf_fW9RHql4fyeyQ-9" edge="1">
          <mxGeometry width="50" height="50" relative="1" as="geometry">
            <mxPoint x="300" y="220" as="sourcePoint" />
            <mxPoint x="600" y="265" as="targetPoint" />
            <Array as="points">
              <mxPoint x="300" y="260" />
            </Array>
          </mxGeometry>
        </mxCell>
        <mxCell id="6jiHXf_fW9RHql4fyeyQ-41" value="Add Master Record" style="text;html=1;align=center;verticalAlign=middle;resizable=0;points=[];autosize=1;strokeColor=none;fillColor=none;fontSize=16;" parent="1" vertex="1">
          <mxGeometry x="10" y="235" width="160" height="30" as="geometry" />
        </mxCell>
        <mxCell id="6jiHXf_fW9RHql4fyeyQ-42" value="Student Report" style="text;html=1;align=center;verticalAlign=middle;resizable=0;points=[];autosize=1;strokeColor=none;fillColor=none;fontSize=16;" parent="1" vertex="1">
          <mxGeometry x="325" y="235" width="130" height="30" as="geometry" />
        </mxCell>
        <mxCell id="W-ZlPOcfFxKbl8zPS86R-1" value="Result" style="text;html=1;align=center;verticalAlign=middle;resizable=0;points=[];autosize=1;strokeColor=none;fillColor=none;" parent="1" vertex="1">
          <mxGeometry x="370" y="275" width="60" height="30" as="geometry" />
        </mxCell>
        <mxCell id="W-ZlPOcfFxKbl8zPS86R-3" value="Schedule Examination" style="text;html=1;align=center;verticalAlign=middle;resizable=0;points=[];autosize=1;strokeColor=none;fillColor=none;" parent="1" vertex="1">
          <mxGeometry x="10" y="265" width="140" height="30" as="geometry" />
        </mxCell>
        <mxCell id="W-ZlPOcfFxKbl8zPS86R-4" value="Registration" style="text;html=1;align=center;verticalAlign=middle;resizable=0;points=[];autosize=1;strokeColor=none;fillColor=none;" parent="1" vertex="1">
          <mxGeometry x="45" y="65" width="90" height="30" as="geometry" />
        </mxCell>
        <mxCell id="W-ZlPOcfFxKbl8zPS86R-5" value="Result" style="text;html=1;align=center;verticalAlign=middle;resizable=0;points=[];autosize=1;strokeColor=none;fillColor=none;" parent="1" vertex="1">
          <mxGeometry x="410" y="65" width="60" height="30" as="geometry" />
        </mxCell>
        <mxCell id="W-ZlPOcfFxKbl8zPS86R-6" value="Opt for Examination" style="text;html=1;align=center;verticalAlign=middle;resizable=0;points=[];autosize=1;strokeColor=none;fillColor=none;" parent="1" vertex="1">
          <mxGeometry x="25" y="105" width="130" height="30" as="geometry" />
        </mxCell>
        <mxCell id="W-ZlPOcfFxKbl8zPS86R-7" value="Certificate" style="text;html=1;align=center;verticalAlign=middle;resizable=0;points=[];autosize=1;strokeColor=none;fillColor=none;" parent="1" vertex="1">
          <mxGeometry x="380" y="95" width="80" height="30" as="geometry" />
        </mxCell>
        <mxCell id="djzAmgvzjJKcPBPGHoLH-2" value="Login &amp;amp; Access Management" style="ellipse;whiteSpace=wrap;html=1;aspect=fixed;" vertex="1" parent="1">
          <mxGeometry x="520" y="440" width="80" height="80" as="geometry" />
        </mxCell>
        <mxCell id="djzAmgvzjJKcPBPGHoLH-3" value="OAS Master &amp;amp; Question Paper Setup" style="ellipse;whiteSpace=wrap;html=1;aspect=fixed;" vertex="1" parent="1">
          <mxGeometry x="270" y="680" width="80" height="80" as="geometry" />
        </mxCell>
        <mxCell id="djzAmgvzjJKcPBPGHoLH-4" value="Conduct Online Exam" style="ellipse;whiteSpace=wrap;html=1;aspect=fixed;" vertex="1" parent="1">
          <mxGeometry x="400" y="820" width="80" height="80" as="geometry" />
        </mxCell>
        <mxCell id="djzAmgvzjJKcPBPGHoLH-5" value="Certificate &amp;amp; Report" style="ellipse;whiteSpace=wrap;html=1;aspect=fixed;" vertex="1" parent="1">
          <mxGeometry x="560" y="600" width="80" height="80" as="geometry" />
        </mxCell>
        <mxCell id="djzAmgvzjJKcPBPGHoLH-6" value="Student Registration" style="ellipse;whiteSpace=wrap;html=1;aspect=fixed;" vertex="1" parent="1">
          <mxGeometry x="280" y="520" width="80" height="80" as="geometry" />
        </mxCell>
        <mxCell id="djzAmgvzjJKcPBPGHoLH-7" value="" style="endArrow=classic;html=1;rounded=0;entryX=0;entryY=0;entryDx=0;entryDy=0;" edge="1" parent="1" target="djzAmgvzjJKcPBPGHoLH-2">
          <mxGeometry width="50" height="50" relative="1" as="geometry">
            <mxPoint x="450" y="330" as="sourcePoint" />
            <mxPoint x="500" y="330" as="targetPoint" />
          </mxGeometry>
        </mxCell>
        <mxCell id="djzAmgvzjJKcPBPGHoLH-8" value="" style="endArrow=classic;html=1;rounded=0;entryX=0.95;entryY=0.288;entryDx=0;entryDy=0;entryPerimeter=0;" edge="1" parent="1" source="djzAmgvzjJKcPBPGHoLH-2" target="djzAmgvzjJKcPBPGHoLH-6">
          <mxGeometry width="50" height="50" relative="1" as="geometry">
            <mxPoint x="410" y="640" as="sourcePoint" />
            <mxPoint x="350" y="550" as="targetPoint" />
          </mxGeometry>
        </mxCell>
        <mxCell id="djzAmgvzjJKcPBPGHoLH-9" value="" style="endArrow=classic;html=1;rounded=0;entryX=0;entryY=0.5;entryDx=0;entryDy=0;exitX=1;exitY=1;exitDx=0;exitDy=0;" edge="1" parent="1" source="djzAmgvzjJKcPBPGHoLH-6" target="djzAmgvzjJKcPBPGHoLH-5">
          <mxGeometry width="50" height="50" relative="1" as="geometry">
            <mxPoint x="410" y="640" as="sourcePoint" />
            <mxPoint x="460" y="590" as="targetPoint" />
          </mxGeometry>
        </mxCell>
        <mxCell id="djzAmgvzjJKcPBPGHoLH-10" value="" style="endArrow=classic;html=1;rounded=0;entryX=0;entryY=0;entryDx=0;entryDy=0;exitX=1;exitY=1;exitDx=0;exitDy=0;" edge="1" parent="1" source="djzAmgvzjJKcPBPGHoLH-3" target="djzAmgvzjJKcPBPGHoLH-4">
          <mxGeometry width="50" height="50" relative="1" as="geometry">
            <mxPoint x="410" y="640" as="sourcePoint" />
            <mxPoint x="460" y="590" as="targetPoint" />
          </mxGeometry>
        </mxCell>
        <mxCell id="djzAmgvzjJKcPBPGHoLH-11" value="" style="endArrow=classic;html=1;rounded=0;entryX=0.5;entryY=1;entryDx=0;entryDy=0;exitX=1;exitY=0.5;exitDx=0;exitDy=0;" edge="1" parent="1" source="djzAmgvzjJKcPBPGHoLH-4" target="djzAmgvzjJKcPBPGHoLH-5">
          <mxGeometry width="50" height="50" relative="1" as="geometry">
            <mxPoint x="480" y="850" as="sourcePoint" />
            <mxPoint x="530" y="800" as="targetPoint" />
          </mxGeometry>
        </mxCell>
        <mxCell id="djzAmgvzjJKcPBPGHoLH-12" value="" style="endArrow=classic;html=1;rounded=0;entryX=0.05;entryY=0.713;entryDx=0;entryDy=0;entryPerimeter=0;" edge="1" parent="1" target="djzAmgvzjJKcPBPGHoLH-4">
          <mxGeometry width="50" height="50" relative="1" as="geometry">
            <mxPoint x="240" y="880" as="sourcePoint" />
            <mxPoint x="330" y="835" as="targetPoint" />
          </mxGeometry>
        </mxCell>
        <mxCell id="djzAmgvzjJKcPBPGHoLH-13" value="User Name &amp;amp;Password" style="text;html=1;align=center;verticalAlign=middle;resizable=0;points=[];autosize=1;strokeColor=none;fillColor=none;rotation=60;" vertex="1" parent="1">
          <mxGeometry x="430" y="365" width="150" height="30" as="geometry" />
        </mxCell>
        <mxCell id="djzAmgvzjJKcPBPGHoLH-15" value="Permission" style="text;html=1;align=center;verticalAlign=middle;resizable=0;points=[];autosize=1;strokeColor=none;fillColor=none;rotation=-15;" vertex="1" parent="1">
          <mxGeometry x="390" y="485" width="80" height="30" as="geometry" />
        </mxCell>
        <mxCell id="djzAmgvzjJKcPBPGHoLH-16" value="" style="endArrow=classic;html=1;rounded=0;entryX=0;entryY=0.5;entryDx=0;entryDy=0;" edge="1" parent="1" target="djzAmgvzjJKcPBPGHoLH-6">
          <mxGeometry width="50" height="50" relative="1" as="geometry">
            <mxPoint x="160" y="560" as="sourcePoint" />
            <mxPoint x="260" y="550" as="targetPoint" />
          </mxGeometry>
        </mxCell>
        <mxCell id="djzAmgvzjJKcPBPGHoLH-17" value="Student Information" style="text;html=1;align=center;verticalAlign=middle;resizable=0;points=[];autosize=1;strokeColor=none;fillColor=none;" vertex="1" parent="1">
          <mxGeometry x="155" y="540" width="130" height="30" as="geometry" />
        </mxCell>
        <mxCell id="djzAmgvzjJKcPBPGHoLH-19" value="Student Information&lt;br&gt;" style="text;html=1;align=center;verticalAlign=middle;resizable=0;points=[];autosize=1;strokeColor=none;fillColor=none;rotation=15;" vertex="1" parent="1">
          <mxGeometry x="375" y="585" width="130" height="30" as="geometry" />
        </mxCell>
        <mxCell id="djzAmgvzjJKcPBPGHoLH-20" value="" style="endArrow=classic;html=1;rounded=0;" edge="1" parent="1">
          <mxGeometry width="50" height="50" relative="1" as="geometry">
            <mxPoint x="630" y="615" as="sourcePoint" />
            <mxPoint x="730" y="510" as="targetPoint" />
          </mxGeometry>
        </mxCell>
        <mxCell id="djzAmgvzjJKcPBPGHoLH-21" value="Exam Certificate" style="text;html=1;align=center;verticalAlign=middle;resizable=0;points=[];autosize=1;strokeColor=none;fillColor=none;rotation=-45;" vertex="1" parent="1">
          <mxGeometry x="610" y="555" width="110" height="30" as="geometry" />
        </mxCell>
        <mxCell id="djzAmgvzjJKcPBPGHoLH-22" value="Result" style="text;html=1;align=center;verticalAlign=middle;resizable=0;points=[];autosize=1;strokeColor=none;fillColor=none;rotation=-56;" vertex="1" parent="1">
          <mxGeometry x="480" y="785" width="60" height="30" as="geometry" />
        </mxCell>
        <mxCell id="djzAmgvzjJKcPBPGHoLH-24" value="Question Paper" style="text;html=1;align=center;verticalAlign=middle;resizable=0;points=[];autosize=1;strokeColor=none;fillColor=none;rotation=45;" vertex="1" parent="1">
          <mxGeometry x="325" y="770" width="110" height="30" as="geometry" />
        </mxCell>
        <mxCell id="djzAmgvzjJKcPBPGHoLH-25" value="Student ID &amp;amp; Password" style="text;html=1;align=center;verticalAlign=middle;resizable=0;points=[];autosize=1;strokeColor=none;fillColor=none;" vertex="1" parent="1">
          <mxGeometry x="245" y="860" width="150" height="30" as="geometry" />
        </mxCell>
        <mxCell id="djzAmgvzjJKcPBPGHoLH-26" value="" style="endArrow=classic;startArrow=classic;html=1;rounded=0;entryX=0;entryY=0;entryDx=0;entryDy=0;" edge="1" parent="1" target="djzAmgvzjJKcPBPGHoLH-3">
          <mxGeometry width="50" height="50" relative="1" as="geometry">
            <mxPoint x="210" y="650" as="sourcePoint" />
            <mxPoint x="300" y="640" as="targetPoint" />
          </mxGeometry>
        </mxCell>
        <mxCell id="djzAmgvzjJKcPBPGHoLH-27" value="" style="endArrow=none;html=1;rounded=0;" edge="1" parent="1">
          <mxGeometry width="50" height="50" relative="1" as="geometry">
            <mxPoint x="280" y="650" as="sourcePoint" />
            <mxPoint x="160" y="650" as="targetPoint" />
          </mxGeometry>
        </mxCell>
        <mxCell id="djzAmgvzjJKcPBPGHoLH-28" value="" style="endArrow=none;html=1;rounded=0;" edge="1" parent="1">
          <mxGeometry width="50" height="50" relative="1" as="geometry">
            <mxPoint x="155" y="625" as="sourcePoint" />
            <mxPoint x="280" y="625" as="targetPoint" />
          </mxGeometry>
        </mxCell>
        <mxCell id="djzAmgvzjJKcPBPGHoLH-29" value="Oas Master Record" style="text;html=1;align=center;verticalAlign=middle;resizable=0;points=[];autosize=1;strokeColor=none;fillColor=none;" vertex="1" parent="1">
          <mxGeometry x="155" y="625" width="130" height="30" as="geometry" />
        </mxCell>
        <mxCell id="djzAmgvzjJKcPBPGHoLH-30" value="R/W" style="text;html=1;align=center;verticalAlign=middle;resizable=0;points=[];autosize=1;strokeColor=none;fillColor=none;rotation=30;" vertex="1" parent="1">
          <mxGeometry x="230" y="655" width="50" height="30" as="geometry" />
        </mxCell>
        <mxCell id="djzAmgvzjJKcPBPGHoLH-31" value="" style="endArrow=classic;html=1;rounded=0;entryX=0;entryY=1;entryDx=0;entryDy=0;" edge="1" parent="1" target="djzAmgvzjJKcPBPGHoLH-3">
          <mxGeometry width="50" height="50" relative="1" as="geometry">
            <mxPoint x="190" y="840" as="sourcePoint" />
            <mxPoint x="410" y="710" as="targetPoint" />
          </mxGeometry>
        </mxCell>
        <mxCell id="djzAmgvzjJKcPBPGHoLH-32" value="Add Master Record" style="text;html=1;align=center;verticalAlign=middle;resizable=0;points=[];autosize=1;strokeColor=none;fillColor=none;rotation=-45;" vertex="1" parent="1">
          <mxGeometry x="155" y="775" width="130" height="30" as="geometry" />
        </mxCell>
        <mxCell id="djzAmgvzjJKcPBPGHoLH-33" value="" style="endArrow=none;html=1;rounded=0;" edge="1" parent="1">
          <mxGeometry width="50" height="50" relative="1" as="geometry">
            <mxPoint x="200" y="440" as="sourcePoint" />
            <mxPoint x="320" y="440" as="targetPoint" />
          </mxGeometry>
        </mxCell>
        <mxCell id="djzAmgvzjJKcPBPGHoLH-34" value="" style="endArrow=none;html=1;rounded=0;" edge="1" parent="1">
          <mxGeometry width="50" height="50" relative="1" as="geometry">
            <mxPoint x="200" y="400" as="sourcePoint" />
            <mxPoint x="320" y="400" as="targetPoint" />
          </mxGeometry>
        </mxCell>
        <mxCell id="djzAmgvzjJKcPBPGHoLH-36" value="Student Record" style="text;html=1;align=center;verticalAlign=middle;resizable=0;points=[];autosize=1;strokeColor=none;fillColor=none;" vertex="1" parent="1">
          <mxGeometry x="200" y="405" width="110" height="30" as="geometry" />
        </mxCell>
        <mxCell id="djzAmgvzjJKcPBPGHoLH-37" value="" style="endArrow=classic;startArrow=classic;html=1;rounded=0;exitX=0.5;exitY=0;exitDx=0;exitDy=0;" edge="1" parent="1" source="djzAmgvzjJKcPBPGHoLH-6">
          <mxGeometry width="50" height="50" relative="1" as="geometry">
            <mxPoint x="230" y="490" as="sourcePoint" />
            <mxPoint x="280" y="440" as="targetPoint" />
          </mxGeometry>
        </mxCell>
        <mxCell id="djzAmgvzjJKcPBPGHoLH-38" value="R/W" style="text;html=1;align=center;verticalAlign=middle;resizable=0;points=[];autosize=1;strokeColor=none;fillColor=none;rotation=60;" vertex="1" parent="1">
          <mxGeometry x="285" y="455" width="50" height="30" as="geometry" />
        </mxCell>
        <mxCell id="djzAmgvzjJKcPBPGHoLH-39" value="Exam Subject Entry" style="ellipse;whiteSpace=wrap;html=1;aspect=fixed;" vertex="1" parent="1">
          <mxGeometry x="-40" y="1070" width="80" height="80" as="geometry" />
        </mxCell>
        <mxCell id="djzAmgvzjJKcPBPGHoLH-40" value="Exam Paper Setup" style="ellipse;whiteSpace=wrap;html=1;aspect=fixed;" vertex="1" parent="1">
          <mxGeometry x="120" y="1440" width="80" height="80" as="geometry" />
        </mxCell>
        <mxCell id="djzAmgvzjJKcPBPGHoLH-41" value="Question Entry" style="ellipse;whiteSpace=wrap;html=1;aspect=fixed;" vertex="1" parent="1">
          <mxGeometry x="-35" y="1280" width="80" height="80" as="geometry" />
        </mxCell>
        <mxCell id="djzAmgvzjJKcPBPGHoLH-42" value="Class/Course Entry&lt;br&gt;" style="ellipse;whiteSpace=wrap;html=1;aspect=fixed;" vertex="1" parent="1">
          <mxGeometry x="280" y="1200" width="80" height="80" as="geometry" />
        </mxCell>
        <mxCell id="djzAmgvzjJKcPBPGHoLH-43" value="" style="endArrow=classic;startArrow=classic;html=1;rounded=0;exitX=1;exitY=0;exitDx=0;exitDy=0;" edge="1" parent="1" source="djzAmgvzjJKcPBPGHoLH-39">
          <mxGeometry width="50" height="50" relative="1" as="geometry">
            <mxPoint x="25" y="1080" as="sourcePoint" />
            <mxPoint x="75" y="1030" as="targetPoint" />
          </mxGeometry>
        </mxCell>
        <mxCell id="djzAmgvzjJKcPBPGHoLH-47" value="Subject Master Record" style="shape=partialRectangle;whiteSpace=wrap;html=1;left=0;right=0;fillColor=none;" vertex="1" parent="1">
          <mxGeometry x="35" y="970" width="120" height="60" as="geometry" />
        </mxCell>
        <mxCell id="djzAmgvzjJKcPBPGHoLH-48" value="R/W" style="text;html=1;align=center;verticalAlign=middle;resizable=0;points=[];autosize=1;strokeColor=none;fillColor=none;" vertex="1" parent="1">
          <mxGeometry x="45" y="1040" width="50" height="30" as="geometry" />
        </mxCell>
        <mxCell id="djzAmgvzjJKcPBPGHoLH-49" value="" style="endArrow=classic;html=1;rounded=0;entryX=1;entryY=0.5;entryDx=0;entryDy=0;exitX=0;exitY=0;exitDx=0;exitDy=0;" edge="1" parent="1" source="djzAmgvzjJKcPBPGHoLH-42" target="djzAmgvzjJKcPBPGHoLH-39">
          <mxGeometry width="50" height="50" relative="1" as="geometry">
            <mxPoint x="100" y="1310" as="sourcePoint" />
            <mxPoint x="150" y="1260" as="targetPoint" />
          </mxGeometry>
        </mxCell>
        <mxCell id="djzAmgvzjJKcPBPGHoLH-50" value="" style="endArrow=classic;html=1;rounded=0;entryX=1;entryY=0;entryDx=0;entryDy=0;exitX=0.5;exitY=1;exitDx=0;exitDy=0;" edge="1" parent="1" source="djzAmgvzjJKcPBPGHoLH-42" target="djzAmgvzjJKcPBPGHoLH-40">
          <mxGeometry width="50" height="50" relative="1" as="geometry">
            <mxPoint x="100" y="1310" as="sourcePoint" />
            <mxPoint x="150" y="1260" as="targetPoint" />
          </mxGeometry>
        </mxCell>
        <mxCell id="djzAmgvzjJKcPBPGHoLH-51" value="" style="endArrow=classic;html=1;rounded=0;exitX=1;exitY=1;exitDx=0;exitDy=0;entryX=0;entryY=0;entryDx=0;entryDy=0;" edge="1" parent="1" source="djzAmgvzjJKcPBPGHoLH-41" target="djzAmgvzjJKcPBPGHoLH-40">
          <mxGeometry width="50" height="50" relative="1" as="geometry">
            <mxPoint x="100" y="1310" as="sourcePoint" />
            <mxPoint x="150" y="1260" as="targetPoint" />
          </mxGeometry>
        </mxCell>
        <mxCell id="djzAmgvzjJKcPBPGHoLH-52" value="" style="endArrow=classic;html=1;rounded=0;exitX=0.5;exitY=1;exitDx=0;exitDy=0;entryX=0.398;entryY=0.021;entryDx=0;entryDy=0;entryPerimeter=0;" edge="1" parent="1" source="djzAmgvzjJKcPBPGHoLH-39" target="djzAmgvzjJKcPBPGHoLH-41">
          <mxGeometry width="50" height="50" relative="1" as="geometry">
            <mxPoint x="100" y="1310" as="sourcePoint" />
            <mxPoint x="150" y="1260" as="targetPoint" />
          </mxGeometry>
        </mxCell>
        <mxCell id="djzAmgvzjJKcPBPGHoLH-54" value="" style="endArrow=classic;startArrow=classic;html=1;rounded=0;" edge="1" parent="1">
          <mxGeometry width="50" height="50" relative="1" as="geometry">
            <mxPoint x="140" y="1360" as="sourcePoint" />
            <mxPoint x="160" y="1440" as="targetPoint" />
          </mxGeometry>
        </mxCell>
        <mxCell id="djzAmgvzjJKcPBPGHoLH-55" value="Exam Paper Record" style="shape=partialRectangle;whiteSpace=wrap;html=1;left=0;right=0;fillColor=none;" vertex="1" parent="1">
          <mxGeometry x="70" y="1330" width="120" height="30" as="geometry" />
        </mxCell>
        <mxCell id="djzAmgvzjJKcPBPGHoLH-56" value="Class Master Record" style="shape=partialRectangle;whiteSpace=wrap;html=1;left=0;right=0;fillColor=none;" vertex="1" parent="1">
          <mxGeometry x="320" y="1060" width="120" height="60" as="geometry" />
        </mxCell>
        <mxCell id="djzAmgvzjJKcPBPGHoLH-57" value="" style="endArrow=classic;startArrow=classic;html=1;rounded=0;exitX=1;exitY=0;exitDx=0;exitDy=0;entryX=0.5;entryY=1;entryDx=0;entryDy=0;" edge="1" parent="1" source="djzAmgvzjJKcPBPGHoLH-42" target="djzAmgvzjJKcPBPGHoLH-56">
          <mxGeometry width="50" height="50" relative="1" as="geometry">
            <mxPoint x="355" y="1190" as="sourcePoint" />
            <mxPoint x="380" y="1130" as="targetPoint" />
          </mxGeometry>
        </mxCell>
        <mxCell id="djzAmgvzjJKcPBPGHoLH-58" value="" style="endArrow=classic;html=1;rounded=0;entryX=0;entryY=0.5;entryDx=0;entryDy=0;" edge="1" parent="1" target="djzAmgvzjJKcPBPGHoLH-39">
          <mxGeometry width="50" height="50" relative="1" as="geometry">
            <mxPoint x="-180" y="1110" as="sourcePoint" />
            <mxPoint x="-90" y="1080" as="targetPoint" />
          </mxGeometry>
        </mxCell>
        <mxCell id="djzAmgvzjJKcPBPGHoLH-59" value="Add Subject" style="text;html=1;align=center;verticalAlign=middle;resizable=0;points=[];autosize=1;strokeColor=none;fillColor=none;" vertex="1" parent="1">
          <mxGeometry x="-150" y="1090" width="90" height="30" as="geometry" />
        </mxCell>
        <mxCell id="djzAmgvzjJKcPBPGHoLH-60" value="Subject Information" style="text;html=1;align=center;verticalAlign=middle;resizable=0;points=[];autosize=1;strokeColor=none;fillColor=none;rotation=-88;" vertex="1" parent="1">
          <mxGeometry x="-90" y="1200" width="130" height="30" as="geometry" />
        </mxCell>
        <mxCell id="djzAmgvzjJKcPBPGHoLH-61" value="Question Record" style="shape=partialRectangle;whiteSpace=wrap;html=1;left=0;right=0;fillColor=none;" vertex="1" parent="1">
          <mxGeometry x="-190" y="1240" width="120" height="40" as="geometry" />
        </mxCell>
        <mxCell id="djzAmgvzjJKcPBPGHoLH-62" value="" style="endArrow=classic;startArrow=classic;html=1;rounded=0;entryX=0.75;entryY=1;entryDx=0;entryDy=0;exitX=0;exitY=0.5;exitDx=0;exitDy=0;" edge="1" parent="1" source="djzAmgvzjJKcPBPGHoLH-41" target="djzAmgvzjJKcPBPGHoLH-61">
          <mxGeometry width="50" height="50" relative="1" as="geometry">
            <mxPoint x="100" y="1310" as="sourcePoint" />
            <mxPoint x="150" y="1260" as="targetPoint" />
          </mxGeometry>
        </mxCell>
        <mxCell id="djzAmgvzjJKcPBPGHoLH-63" value="" style="endArrow=classic;html=1;rounded=0;entryX=0;entryY=1;entryDx=0;entryDy=0;" edge="1" parent="1" target="djzAmgvzjJKcPBPGHoLH-41">
          <mxGeometry width="50" height="50" relative="1" as="geometry">
            <mxPoint x="-180" y="1349" as="sourcePoint" />
            <mxPoint x="-130" y="1310" as="targetPoint" />
          </mxGeometry>
        </mxCell>
        <mxCell id="djzAmgvzjJKcPBPGHoLH-64" value="Add Question" style="text;html=1;align=center;verticalAlign=middle;resizable=0;points=[];autosize=1;strokeColor=none;fillColor=none;" vertex="1" parent="1">
          <mxGeometry x="-170" y="1330" width="100" height="30" as="geometry" />
        </mxCell>
        <mxCell id="djzAmgvzjJKcPBPGHoLH-65" value="" style="endArrow=classic;html=1;rounded=0;entryX=0.014;entryY=0.7;entryDx=0;entryDy=0;entryPerimeter=0;" edge="1" parent="1" target="djzAmgvzjJKcPBPGHoLH-40">
          <mxGeometry width="50" height="50" relative="1" as="geometry">
            <mxPoint x="-80" y="1500" as="sourcePoint" />
            <mxPoint x="150" y="1260" as="targetPoint" />
          </mxGeometry>
        </mxCell>
        <mxCell id="djzAmgvzjJKcPBPGHoLH-66" value="Paper Setup" style="text;html=1;align=center;verticalAlign=middle;resizable=0;points=[];autosize=1;strokeColor=none;fillColor=none;" vertex="1" parent="1">
          <mxGeometry x="-40" y="1465" width="90" height="30" as="geometry" />
        </mxCell>
        <mxCell id="djzAmgvzjJKcPBPGHoLH-67" value="" style="endArrow=classic;html=1;rounded=0;" edge="1" parent="1">
          <mxGeometry width="50" height="50" relative="1" as="geometry">
            <mxPoint x="200" y="1490" as="sourcePoint" />
            <mxPoint x="320" y="1490" as="targetPoint" />
          </mxGeometry>
        </mxCell>
        <mxCell id="djzAmgvzjJKcPBPGHoLH-68" value="Exam Paper Detail" style="text;html=1;align=center;verticalAlign=middle;resizable=0;points=[];autosize=1;strokeColor=none;fillColor=none;" vertex="1" parent="1">
          <mxGeometry x="195" y="1465" width="120" height="30" as="geometry" />
        </mxCell>
        <mxCell id="djzAmgvzjJKcPBPGHoLH-69" value="Class/Course Information" style="text;html=1;align=center;verticalAlign=middle;resizable=0;points=[];autosize=1;strokeColor=none;fillColor=none;rotation=-55;" vertex="1" parent="1">
          <mxGeometry x="150" y="1355" width="160" height="30" as="geometry" />
        </mxCell>
        <mxCell id="djzAmgvzjJKcPBPGHoLH-70" value="Question Details" style="text;html=1;align=center;verticalAlign=middle;resizable=0;points=[];autosize=1;strokeColor=none;fillColor=none;rotation=45;" vertex="1" parent="1">
          <mxGeometry x="10" y="1385" width="110" height="30" as="geometry" />
        </mxCell>
        <mxCell id="djzAmgvzjJKcPBPGHoLH-71" value="Class/Course Information" style="text;html=1;align=center;verticalAlign=middle;resizable=0;points=[];autosize=1;strokeColor=none;fillColor=none;rotation=30;" vertex="1" parent="1">
          <mxGeometry x="110" y="1139" width="160" height="30" as="geometry" />
        </mxCell>
      </root>
    </mxGraphModel>
  </diagram>
</mxfile>
